<svg width="83" height="28" viewBox="0 0 83 28" fill="none" xmlns="http://www.w3.org/2000/svg">
<path d="M11.0264 8.28067V12.0548H7.57255V27.5645H3.07239V12.0548H0.870117V8.28067H3.07239V7.26825C3.07239 2.79109 5.34778 0.799988 10.4583 0.799988H10.7677V4.63876H10.4583C8.27852 4.63876 7.5838 5.27715 7.5838 7.27668V8.28067H11.0264Z" fill="white"/>
<path d="M17.6896 0.763428H13.2119V27.5645H17.6896V0.763428Z" fill="white"/>
<path d="M29.8034 7.99939C24.1107 7.99939 19.979 12.1728 19.979 17.924C19.979 23.7904 23.9504 27.8851 29.6347 27.8851C35.4258 27.8851 39.6279 23.6976 39.6279 17.924C39.6279 12.1503 35.4961 7.99939 29.8034 7.99939ZM29.6347 23.9169C26.5408 23.9169 24.5214 21.5631 24.5214 17.924C24.5214 13.5283 27.334 11.9675 29.7359 11.9675C32.3798 11.9675 35.0489 13.8096 35.0489 17.924C35.0489 20.7953 33.3473 23.9029 29.6347 23.9029V23.9169Z" fill="white"/>
<path d="M51.3676 7.99939V12.6115H50.0766C47.0643 12.6115 45.7789 14.0571 45.7789 17.4515V27.5757H41.3013V8.28062H45.7789V10.3055C47.0109 8.78402 48.8165 7.99939 51.0666 7.99939H51.3676Z" fill="white"/>
<path d="M61.4115 7.99939C55.6569 7.99939 51.7896 11.99 51.7896 17.924C51.7896 23.7904 55.7441 27.8851 61.4115 27.8851C65.6669 27.8851 69.0618 25.5565 70.274 21.8133L70.4034 21.4112H65.6219L65.5376 21.5827C64.75 23.1998 63.3606 24.0182 61.4115 24.0182C58.7282 24.0182 56.8072 22.3308 56.4388 19.6901H70.6143L70.6565 19.4313C70.7553 18.7874 70.8023 18.1367 70.7971 17.4852C70.7971 11.886 66.9382 7.99939 61.4115 7.99939ZM61.2427 11.8663C63.9541 11.8663 65.9229 13.5312 66.131 15.9582H56.4894C56.9732 13.4468 58.8042 11.8522 61.2427 11.8522V11.8663Z" fill="white"/>
<path d="M77.5555 12.0547V22.0749C77.5555 23.1745 77.8367 23.7313 79.4146 23.7313H82.0922V27.5645H78.7368C74.906 27.5645 73.0441 25.7703 73.0441 22.0749V12.0547H70.8418V8.28064H73.0441V3.6488H77.5442V8.28064H82.081V12.0547H77.5555Z" fill="white"/>
</svg>