<svg width="32" height="33" viewBox="0 0 32 33" fill="none" xmlns="http://www.w3.org/2000/svg">
<path d="M16.0401 22.0873C19.1888 22.0873 21.7413 19.535 21.7413 16.3867C21.7413 13.2384 19.1888 10.6862 16.0401 10.6862C12.8914 10.6862 10.3389 13.2384 10.3389 16.3867C10.3389 19.535 12.8914 22.0873 16.0401 22.0873Z" fill="#51B52C"/>
<path d="M14.2927 6.044L5.69691 14.6388C5.53056 14.4723 5.37421 14.296 5.22866 14.111C4.27198 12.8943 3.81559 11.3584 3.95257 9.81674C4.08956 8.27506 4.80961 6.84371 5.96585 5.81465C7.12208 4.7856 8.6274 4.23636 10.1747 4.27898C11.7221 4.3216 13.1949 4.95286 14.2927 6.044Z" fill="#51B52C"/>
<path d="M17.7881 26.7295L26.3924 18.1346C26.558 18.3018 26.7144 18.478 26.8606 18.6624C27.8341 19.8783 28.3036 21.4215 28.1722 22.9734C28.0408 24.5254 27.3186 25.9676 26.1546 27.0026C24.9906 28.0376 23.4737 28.5863 21.9168 28.5355C20.36 28.4847 18.8821 27.8382 17.7881 26.7295V26.7295Z" fill="#51B52C"/>
<path d="M5.69624 18.1346L14.292 26.7295C14.1255 26.8958 13.9492 27.0521 13.7642 27.1977C12.5473 28.1542 11.0113 28.6106 9.46941 28.4736C7.92755 28.3366 6.49604 27.6167 5.46687 26.4606C4.43769 25.3044 3.8884 23.7993 3.93102 22.2521C3.97364 20.705 4.60497 19.2323 5.69624 18.1346V18.1346Z" fill="#51B52C"/>
<path d="M26.3924 14.6388L17.7881 6.04402C17.9547 5.8777 18.1309 5.72136 18.3159 5.57584C19.5312 4.60334 21.0732 4.13403 22.6242 4.26461C24.1752 4.39519 25.6171 5.11571 26.6526 6.27769C27.6881 7.43967 28.2383 8.95455 28.1899 10.5101C28.1415 12.0657 27.4981 13.5435 26.3924 14.6388Z" fill="#51B52C"/>
<path d="M13.001 1.25712C13.1198 1.14077 13.2449 1.03089 13.3756 0.92797C14.2014 0.274157 15.2386 -0.0535415 16.2902 0.00714095C17.3418 0.0678233 18.3345 0.512658 19.0796 1.25712L16.0403 4.29609L13.001 1.25712Z" fill="#51B52C"/>
<path d="M18.7306 31.1759C18.6262 31.2776 18.5153 31.3724 18.3985 31.4596C17.6661 32.0411 16.7456 32.3334 15.8118 32.2811C14.878 32.2288 13.9959 31.8355 13.333 31.1759L16.0318 28.4774L18.7306 31.1759Z" fill="#51B52C"/>
<path d="M30.8732 13.6486C30.9742 13.7545 31.069 13.8663 31.157 13.9834C31.7482 14.7267 32.046 15.6612 31.9936 16.6096C31.9413 17.5579 31.5426 18.454 30.8732 19.1278L28.1318 16.3868L30.8732 13.6486Z" fill="#51B52C"/>
<path d="M1.15587 19.1788C1.04881 19.0697 0.947455 18.9551 0.852217 18.8355C0.251573 18.0771 -0.0493716 17.1244 0.006614 16.1586C0.0625996 15.1929 0.47161 14.2813 1.15587 13.5974L3.94829 16.3867L1.15587 19.1788Z" fill="#51B52C"/>
</svg>